# xmcd
#
# Track frame offsets:
# 150
# 17072
# 36039
# 48314
# 62173
# 78020
# 95762
# 110167
# 126831
# 141786
# 155288
# 172597
#
# Disc length: 2506 seconds
#
#
# Revision: 3
# Processed by: cddbd v1.5.1PL0 Copyright (c) Steve Scherf et al.
# Submitted via: FreeRIP 2.60 
#
DISCID=9309c80c
DTITLE=Randy Travis - Inspirational Journey
DYEAR=1900
DGENRE=Country
TTITLE0=Shallow Water
TTITLE1=Baptism
TTITLE2=Which Way Will You Choose
TTITLE3=Doctor Jesus
TTITLE4=Drive Another Nail
TTITLE5=See Myself In You
TTITLE6=Feet On The Rock
TTITLE7=Don't Ever Sell Your Saddle
TTITLE8=The Carpenter
TTITLE9=Walk With Me
TTITLE10=I Am Going
TTITLE11=Amazing Grace
EXTD=ID3G:   2
EXTT0=
EXTT1=
EXTT2=
EXTT3=
EXTT4=
EXTT5=
EXTT6=
EXTT7=
EXTT8=
EXTT9=
EXTT10=
EXTT11=
PLAYORDER=
